<svg id="Camada_1" data-name="Camada 1" xmlns="http://www.w3.org/2000/svg" viewBox="0 0 1096.08 1354.97"><defs><style>.cls-1,.cls-2{fill:#c54b2f;}.cls-1,.cls-10,.cls-11,.cls-2,.cls-3,.cls-4,.cls-5,.cls-6,.cls-7,.cls-8,.cls-9{stroke:#000;}.cls-1,.cls-10,.cls-11,.cls-2,.cls-3,.cls-4,.cls-7,.cls-8,.cls-9{stroke-linecap:round;stroke-linejoin:round;}.cls-1,.cls-4{stroke-width:13.49px;}.cls-2,.cls-3{stroke-width:14.5px;}.cls-3,.cls-4,.cls-7{fill:none;}.cls-5,.cls-6{fill:#fff;stroke-miterlimit:10;}.cls-5{stroke-width:18.47px;}.cls-6{stroke-width:16.96px;}.cls-10,.cls-11,.cls-7,.cls-9{stroke-width:13.99px;}.cls-8{stroke-width:10.49px;}.cls-9{fill:#f8e9e9;}.cls-10{fill:#e8d0d0;}.cls-11{fill:#ae8b8a;}</style></defs><path class="cls-1" d="M551.85,54.1l42,72.36a113.17,113.17,0,0,1,13,79.54L558.63,516.92a3.76,3.76,0,0,1-7.44-.75V54.28A.35.35,0,0,1,551.85,54.1Z"/><path class="cls-1" d="M551.19,53l-42.68,73.61a112.8,112.8,0,0,0-12.91,79.29l47.9,309.78a3.88,3.88,0,0,0,7.69-.79Z"/><path class="cls-2" d="M491.76,249.37a120.2,120.2,0,0,0-37-77.17L390.31,111a.37.37,0,0,0-.61.37l-.39-1.33-21.46,87.8a119.83,119.83,0,0,0,10.59,84.67L497.1,505.88a4.13,4.13,0,0,0,7.61-3.1L431.59,250.86,505.1,504.11a4,4,0,0,0,7.8-1.46Z"/><path class="cls-1" d="M447.43,511.32l-74.19-209a104.93,104.93,0,0,0-48.41-56.88l-68-37.27a.32.32,0,0,0-.43.45l89.21,147.58L255.79,207.59l1.44,78.85A104.58,104.58,0,0,0,285,355.52l149.82,162a3.6,3.6,0,0,0,5.73-4.31l.62,1A3.48,3.48,0,0,0,447.43,511.32Z"/><path class="cls-1" d="M389.82,519.87,276.38,352.8a95.46,95.46,0,0,0-55.73-39l-68.46-17.21c-.11,0-.18,0-.25.1l-.82-.79,19.4,69.13a95.15,95.15,0,0,0,40.36,54.48L380.15,527.85a3.29,3.29,0,0,0,4.85-3.92A3.17,3.17,0,0,0,389.82,519.87Z"/><path class="cls-1" d="M42.5,500.68h-.11a.27.27,0,0,0-.07.51l.83.35L79.4,550.34a84.41,84.41,0,0,0,50.69,32.34l174.54,36.06a2.87,2.87,0,0,0,3.42-3.37A2.8,2.8,0,0,0,310,610.3L163.07,507.87a84.71,84.71,0,0,0-58.52-14.62L44.3,500.46"/><path class="cls-1" d="M293.44,659.15,127.09,592.79a84.76,84.76,0,0,0-60.31-.94L7.94,613.23a.26.26,0,0,0,0,.5l-1-.17,48.61,41.15a84.41,84.41,0,0,0,56.71,20l178.16-4.54a2.91,2.91,0,0,0,.44-5.78l1,.18A2.81,2.81,0,0,0,293.44,659.15Z"/><path class="cls-1" d="M293.42,710l1-.1a2.82,2.82,0,0,0-.05-5.6L116,687.78A84.72,84.72,0,0,0,57.9,704L7.53,741.14a.27.27,0,0,0,.19.48l-1,.1L65,767.41a84.42,84.42,0,0,0,60.05,3.07l169.56-54.85A2.91,2.91,0,0,0,293.42,710Z"/><path class="cls-1" d="M278.06,746.44l.7-.31a2.2,2.2,0,0,0-1.37-4.15L140.63,772.1A66.24,66.24,0,0,0,101.21,798L72.52,837.65a.21.21,0,0,0,.26.31h0l-.7.31,49.51,5.27a66,66,0,0,0,45.46-12l113.26-81.18A2.28,2.28,0,0,0,278.06,746.44Z"/><path class="cls-1" d="M284.88,800.58l.29-.58a1.87,1.87,0,0,0-3.14-2l-73.35,93.62a56.17,56.17,0,0,0-11.86,38.25l2.63,41.5a.17.17,0,0,0,.33.06l-.29.59,35.3-23.3a56.05,56.05,0,0,0,23.32-32.41l30.37-114.39A1.93,1.93,0,0,0,284.88,800.58Z"/><path class="cls-1" d="M207.08,874.53,283,783.69a1.93,1.93,0,0,0-2.69-2.75l-4.14-4.14,4.65,3.74a1.87,1.87,0,0,0-2-3.13l-106,53.86a56.23,56.23,0,0,0-26.92,29.66l-15.15,38.72a.17.17,0,0,0,.27.2l-.5.4,41.83-6.19A56.09,56.09,0,0,0,207.08,874.53Z"/><line class="cls-3" x1="389.31" y1="110.06" x2="417.84" y2="207.59"/><circle cx="360.73" cy="378.98" r="7.6"/><line class="cls-1" x1="385" y1="523.93" x2="160.43" y2="303.18"/><path class="cls-1" d="M338,561.25,209.11,421.63a89.88,89.88,0,0,0-57.29-28.49l-66.09-6.46a.28.28,0,0,0-.19.5l-.85-.6,27.7,61.61a89.55,89.55,0,0,0,45.14,45.06l56.63,25.32,18.19,8.13h0l97.77,43.71a3.08,3.08,0,0,0,3.06-5.32l.84.6A3,3,0,0,0,338,561.25Z"/><line class="cls-1" x1="160.23" y1="440.7" x2="320.78" y2="555.73"/><line class="cls-1" x1="85.54" y1="387.18" x2="134.15" y2="422.01"/><line class="cls-4" x1="108.14" y1="528.04" x2="85.54" y2="518.83"/><line class="cls-4" x1="309.98" y1="610.3" x2="134.15" y2="538.64"/><line class="cls-4" x1="293.44" y1="659.15" x2="7.98" y2="613.73"/><line class="cls-4" x1="294.34" y1="704.27" x2="7.53" y2="741.14"/><line class="cls-4" x1="278.06" y1="746.44" x2="72.78" y2="837.96"/><line class="cls-4" x1="130.92" y1="899.85" x2="280.77" y2="780.54"/><path class="cls-2" d="M604.31,249.37a120.21,120.21,0,0,1,37-77.17L705.76,111a.37.37,0,0,1,.62.37l.39-1.33,21.45,87.8a119.82,119.82,0,0,1-10.58,84.67L599,505.88a4.12,4.12,0,0,1-7.6-3.1l73.11-251.92L591,504.11a4,4,0,0,1-7.81-1.46Z"/><path class="cls-1" d="M648.64,511.32l74.2-209a104.89,104.89,0,0,1,48.41-56.88l68-37.27a.33.33,0,0,1,.44.45L750.45,356.21l89.83-148.62-1.43,78.85a104.59,104.59,0,0,1-27.78,69.08l-149.81,162a3.6,3.6,0,0,1-5.73-4.31l-.63,1A3.48,3.48,0,0,1,648.64,511.32Z"/><path class="cls-1" d="M706.26,519.87,819.69,352.8a95.52,95.52,0,0,1,55.74-39l68.46-17.21c.11,0,.18,0,.25.1l.82-.79-19.4,69.13a95.2,95.2,0,0,1-40.36,54.48L715.93,527.85a3.29,3.29,0,0,1-4.85-3.92A3.17,3.17,0,0,1,706.26,519.87Z"/><path class="cls-1" d="M1053.58,500.68h.11a.27.27,0,0,1,.07.51l-.83.35-36.25,48.79A84.4,84.4,0,0,1,966,582.68L791.45,618.74a2.88,2.88,0,0,1-3.43-3.37,2.8,2.8,0,0,1-1.92-5.07L933,507.87a84.71,84.71,0,0,1,58.52-14.62l60.25,7.21"/><path class="cls-1" d="M802.64,659.15,969,592.79a84.73,84.73,0,0,1,60.3-.94l58.85,21.38a.26.26,0,0,1-.05.5l1-.17-48.61,41.15a84.42,84.42,0,0,1-56.72,20l-178.16-4.54a2.91,2.91,0,0,1-.43-5.78l-1,.18A2.81,2.81,0,0,1,802.64,659.15Z"/><path class="cls-1" d="M802.66,710l-1-.1a2.81,2.81,0,0,1,0-5.6l178.33-16.49a84.68,84.68,0,0,1,58.1,16.19l50.38,37.17a.27.27,0,0,1-.19.48l1,.1-58.27,25.69a84.42,84.42,0,0,1-60,3.07L801.44,715.63A2.91,2.91,0,0,1,802.66,710Z"/><path class="cls-1" d="M818,746.44l-.69-.31a2.2,2.2,0,0,1,1.37-4.15L955.44,772.1A66.24,66.24,0,0,1,994.87,798l28.68,39.67a.21.21,0,0,1-.25.31h0l.7.31-49.52,5.27a66,66,0,0,1-45.46-12L815.76,750.37A2.28,2.28,0,0,1,818,746.44Z"/><path class="cls-1" d="M811.19,800.58l-.29-.58a1.87,1.87,0,0,1,3.14-2l73.36,93.62a56.27,56.27,0,0,1,11.86,38.25l-2.63,41.5a.17.17,0,0,1-.33.06l.28.59-35.3-23.3A56.08,56.08,0,0,1,838,916.33L807.6,801.94A1.93,1.93,0,0,1,811.19,800.58Z"/><path class="cls-1" d="M889,874.53l-75.86-90.84a1.93,1.93,0,0,1,2.69-2.75L820,776.8l-4.65,3.74a1.87,1.87,0,0,1,2-3.13l106,53.86a56.23,56.23,0,0,1,26.92,29.66l15.14,38.72a.17.17,0,0,1-.27.2l.51.4-41.84-6.19A56.14,56.14,0,0,1,889,874.53Z"/><line class="cls-3" x1="706.77" y1="110.06" x2="678.24" y2="207.59"/><circle cx="735.34" cy="378.98" r="7.6"/><line class="cls-1" x1="711.08" y1="523.93" x2="935.64" y2="303.18"/><path class="cls-1" d="M758.13,561.25,887,421.63a89.88,89.88,0,0,1,57.28-28.49l66.1-6.46a.28.28,0,0,1,.19.5l.84-.6-27.69,61.61a89.59,89.59,0,0,1-45.14,45.06l-56.63,25.32-18.19,8.13L766,570.41a3.08,3.08,0,0,1-3.06-5.32l-.84.6A3,3,0,0,1,758.13,561.25Z"/><line class="cls-1" x1="935.85" y1="440.7" x2="775.29" y2="555.73"/><line class="cls-1" x1="1010.54" y1="387.18" x2="961.93" y2="422.01"/><line class="cls-4" x1="987.94" y1="528.04" x2="1010.54" y2="518.83"/><line class="cls-4" x1="786.1" y1="610.3" x2="961.93" y2="538.64"/><line class="cls-4" x1="802.64" y1="659.15" x2="1088.09" y2="613.73"/><line class="cls-4" x1="801.74" y1="704.27" x2="1088.55" y2="741.14"/><line class="cls-4" x1="818.01" y1="746.44" x2="1023.3" y2="837.96"/><line class="cls-4" x1="965.15" y1="899.85" x2="815.31" y2="780.54"/><path class="cls-5" d="M551.19,1040.82c-175.4,0-318.11-142.7-318.11-318.11S375.79,404.6,551.19,404.6,869.31,547.3,869.31,722.71,726.6,1040.82,551.19,1040.82Z"/><path class="cls-6" d="M551.19,1025.05C390.09,1025.05,259,894,259,732.87S390.09,440.7,551.19,440.7,843.37,571.77,843.37,732.87,712.3,1025.05,551.19,1025.05Z"/><line class="cls-7" x1="31.72" y1="1025.91" x2="549.94" y2="1303.09"/><line class="cls-7" x1="1036.89" y1="1025.91" x2="549.94" y2="1303.09"/><rect class="cls-8" x="271.8" y="491.07" width="563.84" height="677.88" rx="73.64"/><rect class="cls-9" x="271.8" y="461.22" width="563.84" height="677.88" rx="73.64"/><rect class="cls-10" x="335.66" y="731" width="95.93" height="74.06" rx="22.22"/><path class="cls-10" d="M525.36,805.06a19.67,19.67,0,0,1-19.61-19.61V750.61A19.67,19.67,0,0,1,525.36,731H758.17a19.66,19.66,0,0,1,19.61,19.61v34.84a19.66,19.66,0,0,1-19.61,19.61"/><rect class="cls-10" x="335.66" y="863.05" width="95.93" height="74.06" rx="22.22"/><rect class="cls-10" x="505.75" y="863.05" width="95.93" height="74.06" rx="22.22"/><rect class="cls-10" x="335.66" y="995.1" width="95.93" height="74.06" rx="22.22"/><rect class="cls-10" x="505.75" y="995.1" width="95.93" height="74.06" rx="22.22"/><path class="cls-10" d="M777.78,1032.09a37.18,37.18,0,0,1-37.07,37.07H718.92a37.18,37.18,0,0,1-37.07-37.07v-132a37.18,37.18,0,0,1,37.07-37.07h21.79a37.18,37.18,0,0,1,37.07,37.07"/><path class="cls-10" d="M749.38,528A35.75,35.75,0,0,1,785,563.67v92.52a35.75,35.75,0,0,1-35.64,35.63h-386a35.75,35.75,0,0,1-35.64-35.63V563.67A35.75,35.75,0,0,1,363.41,528"/><path class="cls-11" d="M545.17,590.69c-139.69-4-284.73,34.56-383.38,131.57C7.38,874.11,20.16,1027.75,20.16,1027.75l11.56-1.84S46.85,639.81,545.94,638v-.25c493.7,30,488.74,419.81,488.74,419.81l11.45,2.43s20.78-158.64-125.5-318.35c-62.91-68.68-148.34-112-238.27-133.17A685.71,685.71,0,0,0,545.17,590.69Z"/><polygon class="cls-10" points="635.26 1347.98 633.57 1205.88 549.94 1167.01 552.54 1315.75 635.26 1347.98"/><line class="cls-7" x1="633.9" y1="1238.93" x2="566.22" y2="1209.83"/><line class="cls-7" x1="633.9" y1="1272.04" x2="566.22" y2="1242.95"/><line class="cls-7" x1="633.9" y1="1310.85" x2="566.22" y2="1281.75"/><polygon class="cls-10" points="467.13 1347.98 468.83 1205.88 552.46 1167.01 549.86 1315.75 467.13 1347.98"/><rect class="cls-10" x="536.17" y="545.79" width="24.46" height="776.88"/><polygon class="cls-1" points="550.12 621.83 478.12 658.97 550.12 481.47 622.12 658.97 550.12 621.83"/><line class="cls-7" x1="550.12" y1="555.73" x2="550.12" y2="481.47"/><line class="cls-7" x1="468.49" y1="1238.93" x2="536.17" y2="1209.83"/><line class="cls-7" x1="468.49" y1="1272.04" x2="536.17" y2="1242.95"/><line class="cls-7" x1="468.49" y1="1310.85" x2="536.17" y2="1281.75"/><circle cx="550.31" cy="14.14" r="14.14"/><circle cx="372.88" cy="53.92" r="14.14"/><circle cx="722.4" cy="56.63" r="14.14"/><circle cx="639.84" cy="108.55" r="14.14"/><circle cx="463.98" cy="108.55" r="14.14"/><circle cx="327.77" cy="173.15" r="14.14"/><circle cx="775.29" cy="173.15" r="14.14"/><line class="cls-7" x1="560.63" y1="805.06" x2="692.5" y2="805.06"/><line class="cls-7" x1="717.44" y1="805.06" x2="736.01" y2="805.06"/><line class="cls-7" x1="777.78" y1="900.12" x2="777.78" y2="966.11"/><line class="cls-7" x1="777.78" y1="986.68" x2="777.78" y2="1006.93"/><line class="cls-7" x1="749.38" y1="528.04" x2="569.01" y2="528.04"/><line class="cls-7" x1="522.24" y1="528.41" x2="434.82" y2="528.41"/><line class="cls-7" x1="390.41" y1="528.41" x2="407.5" y2="528.41"/><line class="cls-7" x1="550.12" y1="621.83" x2="550.12" y2="602.68"/><line class="cls-7" x1="550.12" y1="575.31" x2="550.12" y2="579.9"/></svg>