<svg id="Camada_1" data-name="Camada 1" xmlns="http://www.w3.org/2000/svg" viewBox="0 0 1082.59 1353.61"><defs><style>.cls-1{fill:#fff;}</style></defs><path class="cls-1" d="M109.32,530.69,87,521.59a6.67,6.67,0,0,0-8.68,3.66,6.52,6.52,0,0,0-.49,2.51A6.65,6.65,0,0,0,82,533.93L104.3,543a6.52,6.52,0,0,0,2.51.49,6.66,6.66,0,0,0,6.17-4.15,6.53,6.53,0,0,0,.49-2.52A6.64,6.64,0,0,0,109.32,530.69Z"/><path class="cls-1" d="M975.78,543.52a6.52,6.52,0,0,0,2.51-.49l22.32-9.1a6.65,6.65,0,0,0,4.15-6.17,6.52,6.52,0,0,0-.49-2.51,6.65,6.65,0,0,0-8.68-3.66l-22.32,9.1a6.64,6.64,0,0,0-4.15,6.16,6.53,6.53,0,0,0,.49,2.52A6.66,6.66,0,0,0,975.78,543.52Z"/><circle class="cls-1" cx="368.3" cy="68.58" r="13.97"/><circle class="cls-1" cx="713.51" cy="71.25" r="13.97"/><circle class="cls-1" cx="631.97" cy="122.54" r="13.97"/><path class="cls-1" d="M545.66,27.94a14,14,0,1,0-14-14A14,14,0,0,0,545.66,27.94Z"/><path class="cls-1" d="M458.27,136.5a14,14,0,1,0-14-14A14,14,0,0,0,458.27,136.5Z"/><path class="cls-1" d="M323.74,200.31a14,14,0,1,0-14-14A14,14,0,0,0,323.74,200.31Z"/><path class="cls-1" d="M765.75,200.31a14,14,0,1,0-14-14A14,14,0,0,0,765.75,200.31Z"/><path class="cls-1" d="M353.48,817.38h50.86a28.9,28.9,0,0,0,28.85-28.86V759.27a28.9,28.9,0,0,0-28.85-28.86H353.48a28.9,28.9,0,0,0-28.86,28.86v29.25A28.9,28.9,0,0,0,353.48,817.38Zm-15-58.11a15.05,15.05,0,0,1,15-15h50.86a15,15,0,0,1,15,15v29.25a15.05,15.05,0,0,1-15,15H353.48a15.06,15.06,0,0,1-15-15Z"/><path class="cls-1" d="M353.48,947.8h50.86A28.89,28.89,0,0,0,433.19,919V889.69a28.89,28.89,0,0,0-28.85-28.85H353.48a28.89,28.89,0,0,0-28.86,28.85V919A28.89,28.89,0,0,0,353.48,947.8Zm-15-58.11a15.05,15.05,0,0,1,15-15h50.86a15,15,0,0,1,15,15V919a15,15,0,0,1-15,15H353.48a15.05,15.05,0,0,1-15-15Z"/><path class="cls-1" d="M353.48,1078.23h50.86a28.9,28.9,0,0,0,28.85-28.86v-29.25a28.9,28.9,0,0,0-28.85-28.86H353.48a28.9,28.9,0,0,0-28.86,28.86v29.25A28.9,28.9,0,0,0,353.48,1078.23Zm-15-58.11a15.06,15.06,0,0,1,15-15h50.86a15.05,15.05,0,0,1,15,15v29.25a15.05,15.05,0,0,1-15,15H353.48a15.06,15.06,0,0,1-15-15Z"/><path class="cls-1" d="M731.6,860.84H710.07a43.57,43.57,0,0,0-43.52,43.52v130.35a43.57,43.57,0,0,0,43.52,43.52H731.6a43.57,43.57,0,0,0,43.52-43.52,6.91,6.91,0,1,0-13.82,0,29.74,29.74,0,0,1-29.7,29.7H710.07a29.74,29.74,0,0,1-29.7-29.7V904.36a29.73,29.73,0,0,1,29.7-29.7H731.6a29.73,29.73,0,0,1,29.7,29.7v65.17a6.91,6.91,0,0,0,13.82,0V904.36A43.57,43.57,0,0,0,731.6,860.84Z"/><path class="cls-1" d="M768.21,982.94a6.91,6.91,0,0,0-6.91,6.91v20a6.91,6.91,0,1,0,13.82,0v-20A6.91,6.91,0,0,0,768.21,982.94Z"/><path class="cls-1" d="M543.35,576.63a6.91,6.91,0,0,0-6.91,6.91v4.53a6.91,6.91,0,0,0,13.82,0v-4.53A6.91,6.91,0,0,0,543.35,576.63Z"/><path class="cls-1" d="M1079.47,742.27l-.32-.26,0,0,0,0-49.75-36.71a90.08,90.08,0,0,0-46.82-17.35A90,90,0,0,0,1032,667.05l48-40.64a6.56,6.56,0,0,0-2.46-11.4,4.39,4.39,0,0,0-.47-.27l-58.12-21.12a90.17,90.17,0,0,0-39.42-5,90,90,0,0,0,30-25.78L1044.34,516a6.94,6.94,0,0,0,3.19-6.93,7.28,7.28,0,0,0-6.12-5.83l-61.29-7.34a90.28,90.28,0,0,0-32.35,2,95,95,0,0,0,29.89-37.14L1005,399.87a6.65,6.65,0,0,0-7.23-9.29,4.36,4.36,0,0,0-.51,0L932,397a95.44,95.44,0,0,0-21.79,4.85,101,101,0,0,0,10.38-24.15l19.16-68.29a6.66,6.66,0,0,0-10.15-7.32L863,318.82A100.93,100.93,0,0,0,828,335.38a109.57,109.57,0,0,0,7.22-37l1.42-77.87a6.65,6.65,0,0,0-10.36-5.65,3.94,3.94,0,0,0-.55.26l-67.14,36.82a110.2,110.2,0,0,0-38.41,35.19A125.3,125.3,0,0,0,726.21,209l-21.15-86.58a7.36,7.36,0,0,0-.32-1,7.13,7.13,0,0,0-3.94-4,7.88,7.88,0,0,0-1.38-.42,7,7,0,0,0-5,.91h0a7.05,7.05,0,0,0-1.72,1.45c-.17.14-.34.28-.5.43L628.51,180.2A126,126,0,0,0,607.74,206a118.15,118.15,0,0,0-15.48-69.11L550.8,65.38a3.64,3.64,0,0,0-.4-.48,6.6,6.6,0,0,0-4.26-3.7,6.67,6.67,0,0,0-7.49,3.1L496.49,137a117.79,117.79,0,0,0-13.58,82.68l.51,3.27a125.66,125.66,0,0,0-29.35-42.75l-63.59-60.38c-.18-.17-.36-.34-.55-.49A7.37,7.37,0,0,0,388.3,118a0,0,0,0,0,0,0,7.72,7.72,0,0,0-1.48-.7,7.29,7.29,0,0,0-3.63-.25,7.14,7.14,0,0,0-4.37,2.72,6.67,6.67,0,0,0-1,1.71,7.79,7.79,0,0,0-.32,1L356.37,209a125.37,125.37,0,0,0,6.08,78.06A110.11,110.11,0,0,0,324,251.91l-67.17-36.84-.53-.26A6.67,6.67,0,0,0,246,220.48l1.43,77.87a109.8,109.8,0,0,0,7.21,37,100.8,100.8,0,0,0-35.06-16.56L153,302.09a6.66,6.66,0,0,0-10.15,7.31L162,377.68a101.07,101.07,0,0,0,10.38,24.16A95.44,95.44,0,0,0,150.6,397L85.26,390.6l-.47,0A6.76,6.76,0,0,0,79.43,392a6.68,6.68,0,0,0-1.85,7.89l27.35,60.86a95,95,0,0,0,29.9,37.15,90.34,90.34,0,0,0-32.36-2l-61.34,7.35a6.92,6.92,0,0,0-6.07,5.82A7.19,7.19,0,0,0,38.24,516l34.84,46.9a90,90,0,0,0,30,25.78,90.14,90.14,0,0,0-39.41,5L5.63,614.72c-.18.06-.32.2-.5.28a6.65,6.65,0,0,0-4.22,3.48,6.69,6.69,0,0,0,1.72,7.93l48,40.64a89.92,89.92,0,0,0,49.46,20.87,90.23,90.23,0,0,0-46.86,17.34L3.49,742l0,0,0,0c-.11.09-.23.17-.33.27a6.58,6.58,0,0,0-3,4.62A6.67,6.67,0,0,0,4,754l57.56,25.37A89.35,89.35,0,0,0,97.66,787c.84,0,1.68-.1,2.52-.13a488.14,488.14,0,0,0-34.32,52.46h0a.57.57,0,0,0-.08.13l-.06.11-.08.14a7.74,7.74,0,0,0-.44.8C7,944.86,13,1027.49,13.27,1031a6.67,6.67,0,0,0,6.64,6.11,7.17,7.17,0,0,0,1-.08l8.82-1.39,425.7,227.69-1,83.33a6.92,6.92,0,0,0,6.91,7,7,7,0,0,0,2.51-.47l67-26.09H533a7.31,7.31,0,0,0,1.33-.13,7.12,7.12,0,0,0,1.32.13h18.06a6.81,6.81,0,0,0,2.75-.58l68.46,26.67a6.91,6.91,0,0,0,6.44-.76,6.91,6.91,0,0,0,3-5.76l-1-81.63L1060,1036.81l1.16.18a7.42,7.42,0,0,0,1,.08,6.65,6.65,0,0,0,6.63-6.11c.29-3.45,6.2-85-50.86-188.46a6.54,6.54,0,0,0-1.38-3.27,5.24,5.24,0,0,0-.23-.48l-1.94-2.69a488.38,488.38,0,0,0-32.48-49.19c1,0,2,.16,3,.16a89.53,89.53,0,0,0,36.17-7.65L1078.62,754a6.67,6.67,0,0,0,.85-11.74Zm-58-26.29,29.11,21.47L937.2,722.89l-13.12-1.69c-.83-.8-1.7-1.58-2.53-2.37-1.39-1.3-2.77-2.6-4.18-3.9-1.1-1-2.21-2-3.33-3-1.5-1.34-3-2.67-4.55-4-.42-.36-.83-.74-1.25-1.11l60.38-5.58A76.83,76.83,0,0,1,1021.44,716Zm-128-21.14q-5.73-4.44-11.84-8.79l83.71,2.14Zm129.91-38A77,77,0,0,1,971.79,675L861,672.2l-.09-.06-.45-.3-.49-.33c-.24-1.32-.51-2.6-.77-3.9s-.47-2.47-.72-3.69l-.24-1.24,194.87-31Zm-9-50.73,34.82,12.65-194,30.87c-.09-.32-.17-.64-.25-1L959.53,607A76.8,76.8,0,0,1,1014.35,606.15Zm-163.11,29.7q-2.44-8-5.29-15.87l93.56-19.34ZM978.53,509.11l49.88,6-29.59,39.83a76.62,76.62,0,0,1-46.08,29.38L841.17,607.36c-1-2.41-2.06-4.8-3.11-7.18L952.6,553.5a6.66,6.66,0,1,0-5-12.34L832.46,588.08c-.12-.23-.22-.47-.33-.69l93.2-65A77,77,0,0,1,978.53,509.11Zm-134.07,153-.84-.47c-1.31-.74-2.61-1.43-3.92-2.16-2.56-1.43-5.13-2.89-7.68-4.25V620.44c3.23,8.52,6.1,17.27,8.56,26.07q1.7,6.06,3.14,12.23C844,659.85,844.21,661,844.46,662.14ZM832,571.22v-19l75.84-33.91Zm101.26-161,41.59-4.07L946.2,426.72A6.66,6.66,0,0,0,954,437.55l28.76-20.61-17.22,38.32a81.71,81.71,0,0,1-41.23,41.15l-92.49,41.36c0-.68-.16-1.35-.23-2-.11-1.13-.22-2.26-.39-3.39-.11-.81-.29-1.62-.43-2.43-.19-1.06-.37-2.11-.6-3.17,0-.14,0-.28-.08-.42L928.21,456a6.66,6.66,0,1,0-7.76-10.83L825.79,513c-.3-.72-.67-1.41-1-2.12s-.77-1.69-1.18-2.52c-.57-1.13-1.18-2.23-1.8-3.34-.43-.77-.85-1.55-1.31-2.31-.12-.19-.21-.39-.33-.59l60.76-65.84A82,82,0,0,1,933.28,410.25Zm-115.62,178c.36.7.68,1.44,1,2.14v6.71a6.74,6.74,0,0,0,0,2.24v49.07l-1-.49q-8.1-4-16.25-7.61c-1.14-.51-2.27-1-3.41-1.48q-6.68-2.91-13.35-5.59c-.87-.35-1.75-.76-2.62-1.1V572.05a41.88,41.88,0,0,0-39.78-41.75,6.82,6.82,0,0,0-2.08-.35H566.66l-16.91-41.69v0a6.91,6.91,0,0,0-.93-1.58l-.27-.32a6.88,6.88,0,0,0-2.95-2l-.41-.13a6.34,6.34,0,0,0-3.66,0l-.41.13a6.82,6.82,0,0,0-3,2l-.27.32a6.91,6.91,0,0,0-.93,1.58v0l-17,41.94h-161a41.91,41.91,0,0,0-41.86,41.85v53c-.91.33-1.79.71-2.7,1q-8.1,2.94-16,6.11c-1.2.48-2.42.94-3.62,1.43q-9.23,3.78-18.17,7.89c-.47.21-1,.4-1.43.62v-98.5a65.8,65.8,0,0,1,8.19-31.73,67.2,67.2,0,0,1,39-31.54h0a66.13,66.13,0,0,1,14.12-2.62c1.58-.12,3.17-.18,4.75-.18H752.63a66.12,66.12,0,0,1,10.58.94,65.17,65.17,0,0,1,25,9.62,66.41,66.41,0,0,1,18.11,17.26q1.65,2.3,3.08,4.71a66.14,66.14,0,0,1,9.29,33.54v37.26A6.57,6.57,0,0,0,817.66,588.29Zm-49-16.24v55.1c-3-1.07-6-2-9-3.08-2.21-.76-4.39-1.54-6.63-2.27-7-2.3-14.13-4.51-21.31-6.54q-8.41-2.38-17-4.53c-1.86-.46-3.74-.87-5.61-1.32-3.85-.93-7.7-1.87-11.6-2.72-2.29-.51-4.62-1-6.93-1.43-3.5-.72-7-1.47-10.52-2.13-2.54-.48-5.12-.9-7.68-1.35-3.32-.59-6.63-1.19-10-1.73-2.74-.43-5.5-.81-8.25-1.21-3.21-.47-6.4-1-9.63-1.38-2.85-.37-5.72-.68-8.59-1-3.16-.37-6.31-.75-9.49-1.08-2.94-.3-5.91-.55-8.87-.81-3.13-.28-6.24-.57-9.38-.8s-6-.4-9-.58c-2.36-.15-4.7-.33-7.07-.45l-19.85-49H740.16a7.41,7.41,0,0,0,1.5-.17A28.53,28.53,0,0,1,768.69,572.05ZM514.28,544.13l-19.52,48.15c-4.07.14-8.09.41-12.13.63-2.64.14-5.29.24-7.91.41-6.14.41-12.24.94-18.31,1.52-1.33.12-2.68.2-4,.34q-11.16,1.13-22.16,2.64c-1.64.23-3.26.52-4.91.75-5.61.82-11.21,1.67-16.75,2.63-2.52.44-5,1-7.51,1.43-4.62.86-9.24,1.73-13.8,2.7-2.79.59-5.53,1.25-8.29,1.88-4.24,1-8.46,1.93-12.65,3-2.89.73-5.74,1.51-8.61,2.28-4,1.07-8,2.16-11.92,3.32-2.92.85-5.82,1.75-8.72,2.66-2.22.69-4.47,1.31-6.68,2V572.05a28.57,28.57,0,0,1,28.54-28.53h23.85a6.78,6.78,0,0,0,2.81.61H514.28Zm-275-86.67,46.34,29.65a78.45,78.45,0,0,0-9.14,10.66Zm72.37-48.53L362.8,464.2H349.22Zm410.1,53.12,49.1-53.11L733.37,464.2h-8.31C724,463.47,722.88,462.77,721.79,462.05Zm90.3,29.2a79.58,79.58,0,0,0-8.6-8.33l39.78-25.46Zm95.66-117.16a87.3,87.3,0,0,1-37,50l-79,50.55c-.58-.33-1.18-.58-1.76-.89-1.11-.6-2.23-1.16-3.36-1.7s-2.52-1.17-3.81-1.7-2.33-.94-3.52-1.36c-.61-.22-1.2-.5-1.82-.7l143.42-141Zm-41.47-42.35L908,321.24,762,464.82c-.74-.09-1.43-.13-2.15-.21-.56-.05-1.13-.12-1.68-.16-1.89-.15-3.73-.25-5.51-.25h-3.16l65.65-96.68A87.55,87.55,0,0,1,866.28,331.74ZM720.22,316.15A96.85,96.85,0,0,1,765,263.59l46.47-25.49L735.52,363.69a6.66,6.66,0,0,0,11.4,6.9L822.83,245l-1,53.11a96.54,96.54,0,0,1-25.65,63.83l-85.8,92.79c-1.6-1-3.26-1.83-4.87-2.77-2.76-1.61-5.5-3.2-8.31-4.72s-5.45-2.89-8.19-4.29c-1.47-.74-2.9-1.56-4.38-2.29l-.39-.21c-2.25-1.15-4.63-2.24-7-3.35ZM665,431.75c-5.64-2.29-11.55-4.44-17.67-6.48l60.21-113.33ZM638.37,190.58l45.38-43.08L663,218.35a7.4,7.4,0,0,0-.29,2,7.16,7.16,0,0,0,14,2l20.69-70.73,14.86,60.8A111,111,0,0,1,702.48,291L633.73,420.42q-7.07-2-14.53-3.81l44-151.53a7,7,0,0,0,.28-2,7.16,7.16,0,0,0-14-2L605.16,413.6c-4.41-.84-9-1.6-13.6-2.28L604,262.21A111.47,111.47,0,0,1,638.37,190.58ZM551.07,92.4l29.67,51.16a105.28,105.28,0,0,1,12,74.21L563.12,408.9l-.37,0c-.67-.05-1.3-.07-2-.11-1.41-.08-2.82-.16-4.18-.22l-3-.1-2.53-.09Zm27.26,305.36-1,12.3a6.14,6.14,0,0,0-.86-.12ZM544.41,421.6c7.2,0,15,.33,23.84,1,1.51.12,3,.28,4.5.45l2.7.28c.06,0,1.91.14,5.1.49a7.3,7.3,0,0,0,2.42.77c9,1.13,17.63,2.59,25.74,4.32h0c9.23,2,18.13,4.29,26.46,6.88a7.47,7.47,0,0,0,2.12.32c.1,0,.2,0,.3,0a282.31,282.31,0,0,1,28.28,10.48c.15.08.25.2.4.27,4.24,1.84,8.45,3.82,12.64,5.87q5,2.44,9.93,5.08c1,.56,2.06,1.15,3.09,1.72,2.45,1.34,4.9,2.7,7.3,4.11l1,.59H651.8a295,295,0,0,0-29.66-9.81c-1.26-.35-2.53-.66-3.8-1l-1.85-.47c-4.13-1-10.6-2.52-18.06-4-5.72-1.05-11.33-1.92-16.69-2.6-6.14-.78-12.2-1.36-18-1.74a261.86,261.86,0,0,0-38.71,0c-3.66.24-7.29.56-11.09.93a419.54,419.54,0,0,0-52.58,10.34l-.22.06c-7.84,2.31-15.88,5.08-23.93,8.24H388.6l1.89-1.08q5.08-3,10.27-5.71l3.5-1.84c4.31-2.21,8.64-4.35,13-6.35,9.48-4.33,19-8.08,28.61-11.38.11,0,.22,0,.33,0a7,7,0,0,0,2.24-.36c8.38-2.76,17.07-5.2,25.82-7.25l.12,0c8.87-2.08,17.18-3.67,25.41-4.87a7,7,0,0,0,2.49-.87q8.76-1.2,17.66-1.87h0a4.52,4.52,0,0,0,.52,0c3.92-.3,7.6-.52,11.15-.69C535.9,421.75,540.13,421.6,544.41,421.6ZM375,311.9l61.25,115.29q-8.94,3.24-17.81,7.06Zm122-1.15,15.32,99.11c-2.34.23-4.66.52-7,.8Zm11-167.07L537.75,92.4v316c-2.21.06-4.49.15-6.82.26-1.76.07-3.54.11-5.29.2L496,217.32A104.68,104.68,0,0,1,508,143.68ZM370.28,212.44l14.85-60.8,20.7,70.73a7.16,7.16,0,0,0,14-2,7.4,7.4,0,0,0-.29-2L398.84,147.5l45.38,43.08a111.47,111.47,0,0,1,34.36,71.63l12.52,150c-4.37.74-8.79,1.59-13.32,2.56L433.16,261.09a7.16,7.16,0,0,0-13.75,4l44.41,153c-4.73,1.23-9.44,2.57-14.07,4L380.1,291A111.1,111.1,0,0,1,370.28,212.44ZM347.07,363.69,271.16,238.1l46.47,25.49a96.79,96.79,0,0,1,44.73,52.56h0l43.86,123.53c-.6.29-1.17.62-1.77.91-4.8,2.34-9.57,4.76-14.26,7.34-.19.1-.38.22-.57.33-4.54,2.51-9,5.16-13.41,7.88-.58.36-1.18.68-1.76,1l-88.07-95.24a96.5,96.5,0,0,1-25.65-63.83l-1-53.11,75.91,125.59a6.66,6.66,0,1,0,11.4-6.9ZM216.31,331.74a87.58,87.58,0,0,1,51.16,35.78l65.92,97.07c-.63.07-1.24.18-1.86.26-.91.11-1.81.23-2.72.37s-2,.35-3,.55-1.72.34-2.57.54c-.32.07-.63.12-.94.2L174.55,321.24Zm-54.6-4.45,146.6,144.12c-.6.27-1.16.61-1.75.9-1,.47-1.91,1-2.86,1.47-1.15.62-2.27,1.28-3.39,2-.92.55-1.83,1.11-2.72,1.7-.38.26-.79.47-1.17.74l-84.55-54.11a87.31,87.31,0,0,1-37-50Zm-44.63,128L99.86,416.94l28.76,20.61a6.68,6.68,0,0,0,9.3-1.54,6.67,6.67,0,0,0-1.54-9.29l-28.66-20.54,41.59,4.07a82,82,0,0,1,52.34,26l67.78,73.46a.64.64,0,0,0,0,.07,74.73,74.73,0,0,0-2.9,7.06c0,.06-.06.13-.08.19L162,445.11a6.66,6.66,0,1,0-7.56,11l108.4,74.72c-.17,1.07-.35,2.13-.49,3.2,0,.24,0,.48-.07.72-.27,2.41-.43,4.84-.48,7.27,0,.24,0,.47,0,.7L158.31,496.41A81.71,81.71,0,0,1,117.08,455.26ZM261.4,578.43c0,.09-.09.17-.13.25l-86.54-60.33,87.06,38.92v20.45Zm.39,29.73v40.33c-2.27,1.14-4.56,2.42-6.84,3.61-2.54,1.33-5.06,2.62-7.61,4-.6.33-1.2.62-1.8,1,.66-2.81,1.33-5.61,2.08-8.38h0a304.74,304.74,0,0,1,9.89-30.09c1.24-3.21,2.56-6.43,3.93-9.64C261.56,608.69,261.68,608.43,261.79,608.16Zm-178-53.25-29.6-39.83,49.89-6a77,77,0,0,1,53.2,13.29l96,67L135,541.16a6.66,6.66,0,1,0-5,12.34l119.79,48.82c-.23.52-.44,1-.67,1.58l-.94,2.26c-.33.8-.68,1.59-1,2.38L129.84,584.29A76.62,76.62,0,0,1,83.77,554.91Zm158.67,66.26q-3,8.42-5.53,16.89l-93.86-37.43Zm-174.2-15a76.85,76.85,0,0,1,54.82.85L231.8,650.37,33.39,618.81Zm-9,50.73L29.47,631.67l200.91,32-.51,2.52q-4.87,3-9.67,6.07L110.79,675A77.15,77.15,0,0,1,59.25,656.88Zm140.82,29.19q-5.9,4.29-11.53,8.71l-71.26-6.59ZM61.15,716a76.89,76.89,0,0,1,45.7-15.05q3.56,0,7.11.33l59.85,5.54-1.45,1.27c-1.44,1.26-2.85,2.52-4.27,3.78-1.16,1-2.33,2.09-3.48,3.15-1.46,1.33-2.88,2.67-4.3,4-.8.75-1.62,1.5-2.41,2.26L144.7,723,32,737.45Zm5.76,51.2L30.41,751.1l13.13-1.69,99.05-12.73c-.32.33-.61.68-.93,1-4.53,4.77-8.95,9.64-13.3,14.56-1.31,1.48-2.6,3-3.89,4.45q-5.75,6.64-11.25,13.43c-.65.79-1.34,1.56-2,2.35A76.16,76.16,0,0,1,66.91,767.18ZM27.74,1001.8c-.08.48-.38,3.28-.76,6.92-.11,1.07-.24,2.37-.39,3.79,1.33-29.14,9.32-91.85,49.74-164.59.08-.08.13-.18.2-.26a6.25,6.25,0,0,0,.56-.69,6.92,6.92,0,0,0,.79-1.27,6.66,6.66,0,0,0,.31-.85,6,6,0,0,0,.24-.67,481.46,481.46,0,0,1,41.7-61.48,544.6,544.6,0,0,1,44.35-49.27l1.11-1h0a383.64,383.64,0,0,1,29-25.51c9.78-7.75,20.3-15.31,31.16-22.37l7.64-4.78c1.94-1.21,3.85-2.47,5.83-3.64h0c10.68-6.38,21.49-12.25,32.12-17.45A484.36,484.36,0,0,1,325.92,636q9.75-3.36,19.74-6.35c2.33-.71,4.71-1.32,7.07-2,4.35-1.25,8.69-2.51,13.1-3.65,2.8-.73,5.65-1.36,8.47-2,4-1,8.05-2,12.12-2.86,3-.66,6.07-1.24,9.11-1.85,4-.8,7.9-1.61,11.89-2.33,3.14-.56,6.31-1.06,9.48-1.57,4-.65,7.9-1.3,11.88-1.87,3.24-.46,6.51-.86,9.78-1.27,4-.5,7.93-1,11.92-1.42,3.34-.36,6.69-.66,10-1,4-.36,8-.71,12-1,3.42-.25,6.86-.45,10.3-.64,2.12-.11,4.26-.2,6.4-.3l-14.35,35.38c-53.5,4.1-103.61,13.45-149,27.77a6.66,6.66,0,0,0-2.22.42,7,7,0,0,0-1.3.68c-12,3.87-22.11,7.42-31.42,11.08-7.73,3-15.75,6.5-25.24,10.87-3.48,1.61-6.94,3.29-10.38,5-9.76,4.79-19.21,9.83-28.09,15l0,0-1.71,1a418.15,418.15,0,0,0-60.75,43l-.7.62c-4.44,3.83-9.09,8.05-14.2,12.9q-8.55,8.12-16.63,16.74a401.74,401.74,0,0,0-43.65,55.77L88.35,844c-.71,1.07-1.41,2.13-2.08,3.2a419.85,419.85,0,0,0-41.82,88.11A406.87,406.87,0,0,0,27.74,1001.8Zm174.59-258q6.25-4.4,12.76-8.61c1.17-.76,2.36-1.51,3.55-2.26,1.61-1,3.28-2,4.92-3,0,2.34.06,4.67.13,7Zm22.11,6.85c0,.52.07,1,.11,1.56l-15.41,3.39Zm1.25,15c.06.46.15.93.2,1.39l-95.35,42.51q4.74-5.58,9.68-11c1.05-1.13,2-2.32,3.09-3.44,4.67-5,9.49-9.8,14.42-14.51Zm2.17,15.1c.13.81.2,1.6.34,2.41l-67.08,48.08a58.48,58.48,0,0,1-40.31,10.64L107,840.38c1.31-1.9,2.59-3.82,3.94-5.69.65-.91,1.31-1.81,2-2.71Zm3.21,16.75c.05.21.09.42.14.63l-3.47,1.76Zm-80.86,70.6a48.85,48.85,0,0,1,23.4-25.78l60.75-30.85c0,.14.07.27.1.41l-32,25.44L144,883.85Zm33.61,1.13,54.67-43.53c.18.57.37,1.14.55,1.71l-39.62,47.43a48.64,48.64,0,0,1-30.26,17l-16.82,2.49Zm27.54,30.89,37-47.29c.28.69.61,1.36.91,2.05q1.78,4.2,3.71,8.37c.55,1.18,1.11,2.36,1.67,3.54,1.28,2.68,2.6,5.33,3.95,8,.33.66.64,1.34,1,2L248.5,918.65a48.72,48.72,0,0,1-20.26,28.17L203,963.5,201,933.35A48.84,48.84,0,0,1,211.36,900.09Zm45.18-62.87c-1.31-3.48-2.52-7-3.7-10.53-1.55-4.59-3-9.35-4.38-14.17q-1.72-6.13-3.21-12.34h0C244.05,795.11,243,790,242,784.9c-1.73-9.42-3-18.83-3.85-28-.45-5.06-.79-10.27-1-15.46-.16-4.09-.31-8.18-.31-12.31,0-2.44.08-4.86.17-7.29,1.87-1.06,3.78-2.11,5.7-3.16s3.86-2.14,5.85-3.19c.55-.29,1.12-.57,1.67-.85v.08c-.51,6.11-.83,12.37-1,18.63l-.07,2.21c0,1.2-.08,2.4-.08,3.61,0,4.43.15,8.82.34,13.21.28,6.26.75,12.53,1.41,18.64.71,6.58,1.71,13.4,3.06,20.83l.24,1.39c.39,2.2.79,4.4,1.25,6.58.66,3.18,1.42,6.34,2.19,9.49.89,3.64,1.87,7.25,2.89,10.83.31,1.06.64,2.11,1,3.16l.27.84v26l-.57-1.32C259.59,845,258,841.11,256.54,837.22ZM460.15,1200.1a6.9,6.9,0,0,0-4,6.17l-.5,41.45-417-223c.45-3.49.94-8.17,1.6-14.58.33-3.15.58-5.61.66-6.16a395,395,0,0,1,16.17-64.38,406.86,406.86,0,0,1,40.49-85.32c.29-.46.59-.91.89-1.36l21,2.23a71.46,71.46,0,0,0,23.09-1.31,62.24,62.24,0,0,0-4.68,9.43l-15,38.29a3.7,3.7,0,0,0-.09.48,6.58,6.58,0,0,0,0,5.15,6.67,6.67,0,0,0,6.11,4,6.55,6.55,0,0,0,1-.07L171.11,905a62,62,0,0,0,29.67-13,62.1,62.1,0,0,0-13,42.2l2.61,41.11a1.64,1.64,0,0,0,0,.22A6.66,6.66,0,0,0,200.71,981l34.86-23a61.92,61.92,0,0,0,25.8-35.87l.42-1.57v147.17a79.85,79.85,0,0,0,1.48,15.09v14.39a78,78,0,0,0,77.91,77.91H514Zm62.51,115.31-54.24,21.14.25-21.56,54-23.21Zm0-38.67-53.81,23.14.28-23.42,53.53-23Zm0-38.32-53.35,22.93.21-17.76,53.14-22.85Zm0-32.71-53,22.77.22-17.69,52.74-24.52Zm0-141.3h-1.19a15.05,15.05,0,0,1-15-15v-29.25a15.05,15.05,0,0,1,15-15h1.19Zm0-130.43h-1.19a15,15,0,0,1-15-15V889.69a15,15,0,0,1,15-15h1.19Zm0-130.42h-3.77a12.47,12.47,0,0,1-12.45-12.46V756.69a12.46,12.46,0,0,1,12.45-12.46h3.77Zm0-73.15h-3.77a26.31,26.31,0,0,0-26.27,26.28V791.1a26.31,26.31,0,0,0,26.27,26.28h3.77v43.46h-1.19a28.89,28.89,0,0,0-28.85,28.85V919a28.89,28.89,0,0,0,28.85,28.85h1.19v43.46h-1.19a28.9,28.9,0,0,0-28.85,28.86v29.25a28.9,28.9,0,0,0,28.85,28.86h1.19v55.51H341.18a66.14,66.14,0,0,1-66.06-66.07V702.47c7.57-3.43,14.26-6.29,20.67-8.81,8-3.15,16.61-6.22,26.59-9.49a42.4,42.4,0,0,0,36.56,21.36H522.66Zm0-38.7H358.94a28.36,28.36,0,0,1-22.83-11.82c40.88-12.34,85.57-20.64,133.13-24.7l-3.41,8.39a6.91,6.91,0,0,0,9.57,8.73l37.7-19.44,1.07,0c2.83-.11,5.66-.17,8.49-.26Zm24.16-46.27v667.79H536.48V724.57h0v-40.4h0V640.81l6.87-3.55,3.47,1.79Zm10.07-16.74-6.63-3.42v-14.7a6.91,6.91,0,1,0-13.82,0v14.7l-10,5.17-18.27,9.43-22.49,11.6,50.79-125.21v37.94a6.91,6.91,0,0,0,13.82,0V526.27l5.37,13.25,0,.05L601,651.48l-22.46-11.59h0L556.9,628.7Zm64,34.88-3.26-8.05a707.89,707.89,0,0,1,80.93,12.05,566.7,566.7,0,0,1,60.76,16.51,28.18,28.18,0,0,1-19.14,7.62H560.64V652.54c4.33.1,8.67.19,13,.35l37.66,19.42a6.84,6.84,0,0,0,3.17.77,6.9,6.9,0,0,0,6.4-9.5Zm-58.89,573a7.45,7.45,0,0,0-1.34-.43v-17.82l58.66,25.22.21,17.76Zm57.71,39.84.28,23.42L562,1275a7.45,7.45,0,0,0-1.34-.43v-23.44ZM562,1203.91a7.45,7.45,0,0,0-1.34-.43V1183.7l58.27,27.09.21,17.69Zm10.35-125.68a28.9,28.9,0,0,0,28.86-28.86v-29.25a28.9,28.9,0,0,0-28.86-28.86H560.64V947.8h11.69A28.89,28.89,0,0,0,601.19,919V889.69a28.89,28.89,0,0,0-28.86-28.85H560.64V817.38h188.2a26.31,26.31,0,0,0,26.28-26.28V756.69a26.31,26.31,0,0,0-26.28-26.28H560.64V705.53H740.16A42.22,42.22,0,0,0,773.52,689a488.5,488.5,0,0,1,45.17,19v359.62a66.14,66.14,0,0,1-66.06,66.07h-192v-55.51Zm-11.69-13.82v-59.33h11.69a15.05,15.05,0,0,1,15,15v29.25a15.05,15.05,0,0,1-15,15Zm0-130.43V874.66h11.69a15,15,0,0,1,15,15V919a15,15,0,0,1-15,15Zm0-130.42V744.23h188.2a12.47,12.47,0,0,1,12.46,12.46V791.1a12.47,12.47,0,0,1-12.46,12.46H560.64Zm0,509.7v-23.85L620.15,1315l.26,21.56Zm72.55-63.84-.51-43.15a6.92,6.92,0,0,0-4-6.17l-53.86-25H752.63a78,78,0,0,0,77.91-77.91v-14.39a79.85,79.85,0,0,0,1.48-15.09V943.91a61.69,61.69,0,0,0,15,14l34.86,23a6.73,6.73,0,0,0,3.67,1.1,6.66,6.66,0,0,0,6.66-6.58c0-.1,0-.2,0-.3l2.61-41a62.14,62.14,0,0,0-13-42.19,62,62,0,0,0,29.67,13l41.32,6.12a6.55,6.55,0,0,0,1,.07,6.55,6.55,0,0,0,6.07-9.19c-.05-.16,0-.34-.1-.5l-15-38.24a62.24,62.24,0,0,0-4.68-9.43,71.46,71.46,0,0,0,23.09,1.31l20.41-2.18a399.78,399.78,0,0,1,22.48,40.3,413.48,413.48,0,0,1,28.25,77.7,343.19,343.19,0,0,1,9.06,49.36c.3,2.86.59,5.72.7,8.59,0,.24.12.45.15.68ZM839.6,736.83l-.05-1.4c-.06-5.54-.31-11.3-.73-17.17l.4.22c3.26,1.74,6.64,3.61,10,5.56.89.52,1.77,1.07,2.65,1.61,0,1.16.08,2.31.08,3.48,0,4.33-.11,9-.36,14.27-.22,4.78-.56,9.63-1.05,14.83-.44,4.66-1,9.42-1.74,14.54-.79,5.55-1.7,10.93-2.7,16-.91,4.59-2,9.37-3.17,14.19-1.12,4.54-2.36,9-3.68,13.51-1.6,5.4-3.29,10.58-5,15.41h0c-.71,2-1.45,4-2.21,6v-32.3l.34-1.43c.7-3.08,1.36-6.17,2-9.29,1.21-6.34,2.24-12.94,3-19.63q.71-5.67,1.17-11.4l.09-1c.25-3,.5-6,.65-9,.25-5,.37-9.93.37-14.61C839.65,738.39,839.62,737.61,839.6,736.83Zm33.82,18.78-9.14-2c0-.3.05-.62.07-.92Zm-8.33-16.69c0-.59,0-1.13,0-1.7s0-1.19,0-1.76,0-1,0-1.4c.61.39,1.23.76,1.83,1.16,2.48,1.62,4.93,3.31,7.37,5,1.56,1.08,3.13,2.15,4.68,3.24Zm59.12,41.53c1.19,1.13,2.36,2.25,3.51,3.38l2.33,2.25c1.4,1.39,2.76,2.78,4.12,4.16.71.73,1.45,1.46,2.16,2.19,1.37,1.43,2.7,2.85,4,4.28.63.68,1.3,1.36,1.92,2q2.91,3.15,5.68,6.31c1.21,1.38,2.42,2.82,3.63,4.24l-88.94-39.65c.11-.91.23-1.81.33-2.7Zm-61.42,3.86,106.42,47.45c1.2,1.64,2.37,3.3,3.54,5,.83,1.18,1.69,2.35,2.51,3.53l.11.16-13.59,1.45a58.5,58.5,0,0,1-40.31-10.64L860,787.13c.23-1.25.45-2.51.67-3.79Zm46.19,58a48.85,48.85,0,0,1,23.4,25.78l6.17,15.78-85.29-67.91c.16-.58.32-1.14.48-1.71ZM875.91,851l54.34,43.27-16.82-2.49a48.64,48.64,0,0,1-30.26-17L848,832.74l1-3.1ZM834.2,866.34c1.21-2.54,2.44-5.07,3.56-7.59.13-.29.28-.58.41-.86l33.06,42.2a48.83,48.83,0,0,1,10.32,33.25l-1.92,30.16-25.28-16.68a48.68,48.68,0,0,1-20.26-28.17L832,910.83V871C832.79,869.44,833.46,867.9,834.2,866.34ZM1003.06,843l1.7,3.09a1.89,1.89,0,0,1,.1.17h0l.13.24h0l0,0c38.71,69.15,48.12,129.34,50.19,160.55a378.1,378.1,0,0,0-8-39.48,426.18,426.18,0,0,0-29.16-80.21,414.13,414.13,0,0,0-25.46-45.21c-4.26-6.57-8.88-13.23-13.7-19.78C972.05,813.11,965,804.31,958,796.3c-2-2.25-4-4.49-6-6.71-6.16-6.69-12.72-13.31-19.9-20.09l0,0c-4.68-4.42-9.57-8.82-14.54-13.07a421.28,421.28,0,0,0-55.62-40.25l-2.14-1.31c-1.26-.78-2.52-1.56-3.8-2.31-7.81-4.57-15.76-8.66-21.81-11.72h0l-2.25-1.15c-1.19-.61-2.37-1.22-3.56-1.8a503.25,503.25,0,0,0-53.73-22.67c-.15-.11-.29-.23-.45-.33a6.77,6.77,0,0,0-2.89-.84,579.18,579.18,0,0,0-69.92-19.47,724.58,724.58,0,0,0-89.37-13l-14.25-35.14c1.38.08,2.76.15,4.13.24,2.51.16,5,.35,7.51.54,3.35.26,6.7.55,10,.86q3.85.36,7.68.76c3.25.34,6.5.72,9.73,1.11q3.87.46,7.73,1c3.19.43,6.36.89,9.53,1.37,2.57.38,5.13.75,7.68,1.17,3.18.51,6.33,1.07,9.48,1.63,2.5.45,5,.88,7.49,1.35,3.23.62,6.43,1.29,9.63,2,2.37.49,4.75,1,7.11,1.48,3.5.78,7,1.62,10.45,2.45,2,.48,4,.93,6,1.43q8.16,2.06,16.2,4.32c15.36,4.35,30.46,9.36,44.9,14.89a477,477,0,0,1,49.31,22.23c9.34,4.86,18.79,10.23,28.1,16l3.47,2.28a6.39,6.39,0,0,0,3.08,2C868.08,692.6,878,699.65,887.35,707a362.24,362.24,0,0,1,29,25.34l1.26,1.16,1.08,1.1c11.4,11.27,22.36,23.09,32.7,35.3q5.34,6.31,10.46,12.75A481.3,481.3,0,0,1,1003.06,843Zm12.62-75.86a76.11,76.11,0,0,1-44.89,5.22c-.64-.79-1.32-1.55-2-2.33q-5.52-6.81-11.28-13.46c-1.29-1.48-2.57-3-3.88-4.43q-6.54-7.41-13.34-14.6c-.3-.32-.58-.65-.89-1l112.74,14.49Z"/></svg>