<?xml version="1.0" encoding="UTF-8"?>
<svg width="87px" height="82px" viewBox="0 0 87 82" version="1.1" xmlns="http://www.w3.org/2000/svg" xmlns:xlink="http://www.w3.org/1999/xlink">
    <!-- Generator: Sketch 55.2 (78181) - https://sketchapp.com -->
    <title>SVG_LOGO</title>
    <desc>Created with Sketch.</desc>
    <g id="Page-1" stroke="none" stroke-width="1" fill="none" fill-rule="evenodd">
        <g id="HOME_01" transform="translate(-677.000000, -16.000000)" fill="#FFFFFF">
            <g id="SVG_LOGO" transform="translate(677.000000, 16.000000)">
                <polygon id="Fill-1" points="72.0735187 13.3164791 66.8693781 13.3164791 66.8693781 18.2193582 66.8693781 37.5853253 64.4089094 37.5853253 64.4089094 42.4882044 66.8693781 42.4882044 66.8693781 57.9798967 72.0735187 57.9798967 72.0735187 42.4882044 82.1759406 42.4882044 82.1759406 37.5853253 72.0735187 37.5853253 72.0735187 18.2193582 86.6510031 18.2193582 86.6510031 13.3164791"></polygon>
                <g id="Group-7">
                    <path d="M52.8269015,40.0553344 C53.7257607,38.7881781 53.7133385,36.6042875 55.0364644,35.7641078 C55.1377533,35.7000453 55.2457311,35.6459125 55.3594422,35.5981859 C55.3817385,35.72535 55.3753681,35.8243266 55.3498867,35.9072875 C55.2769459,36.1520062 54.856183,36.5917953 54.8466274,36.8973734 C55.6346422,36.8874437 56.6733311,35.5472562 57.2431607,35.0952953 C57.9047237,34.5731859 59.1424867,33.4018031 60.0480348,34.0129594 C59.8486422,34.3246234 59.3262719,34.5859984 59.0160348,34.8153422 C58.6331756,35.0981781 58.2528644,35.3912641 57.9047237,35.7160609 C57.5533978,36.0408578 57.2208644,36.3845531 56.8978867,36.7381781 C56.6163163,37.0498422 56.1541459,37.8461391 55.8155607,38.0815688 C56.9517163,37.2919984 58.1643163,36.5216469 59.345383,35.7990219 C60.0069459,35.3944672 60.6936719,35.0347563 61.4218052,34.7612094 C61.9760274,34.5539672 62.8086348,34.1974594 63.3752793,34.4710063 C63.1570941,34.9806234 62.4417015,35.1081078 61.9537311,35.3182328 C60.38662,35.9995375 58.5223311,37.0978891 57.3540052,38.3650453 C56.9963089,38.7532641 56.6984941,39.1895297 56.4739385,39.6667953 C56.4137385,39.7946 56.3567237,39.9217641 56.3092644,40.0553344 C56.2016052,40.3448969 56.8188941,40.0966547 56.9045756,40.0649437 C57.2527163,39.9310531 58.3035089,39.3327094 58.6264867,39.7558422 C58.3512867,40.1126703 57.8289163,40.3609125 57.4425533,40.5806469 C56.9517163,40.8577172 56.4580126,41.1312641 55.9862867,41.4435687 C55.131383,42.0130844 54.3022793,42.7581312 54.07422,43.8122797 C53.7385015,45.3561859 51.838857,43.4426391 51.4496274,42.9586469 C50.6173385,41.9147484 50.1201311,40.6632875 49.6611459,39.4188734 C44.4087756,44.9711703 50.3255756,49.4917406 53.1435089,54.0632406 C59.9371904,65.0855141 55.2769459,79.6283422 42.6961015,81.7613031 C37.2730052,82.6812406 30.9446793,79.7426938 27.8168274,75.7093188 C26.6707978,74.2349203 25.6544052,72.4680766 25.3030793,70.6089828 C25.1482793,69.7745688 24.8756274,67.4731234 25.6515385,66.9029672 C27.4368348,65.5884047 27.7566274,69.4308734 28.1334348,70.3002016 C29.9601385,74.4991781 33.6801163,78.3961 40.1635607,78.2593266 C46.213183,78.1318422 51.3072496,73.0254203 51.8770793,67.4350063 C52.6778348,59.5713344 46.2198719,55.2701781 41.4299904,51.5164359 C41.4774496,51.5545531 41.4076941,52.4302875 41.4233015,52.5542484 C41.4615237,52.8854516 41.5468867,53.2070453 41.6641015,53.5190297 C41.8982126,54.1494047 42.2718348,54.7192406 42.6804941,55.2477563 C43.5510052,56.3813422 44.5543385,57.3871234 45.2573089,58.6414672 C45.526457,59.1222563 46.1090274,60.0104828 45.6532274,60.5229828 C45.3585978,60.8541859 44.7413089,60.8926234 44.3393385,60.9880766 C43.7822496,61.1152406 43.18662,61.26835 42.6773089,61.5386938 C42.0695756,61.8602875 41.5437015,62.3154516 41.0404422,62.7866312 C40.7110941,63.0957328 40.5941978,63.5986234 40.2333163,63.8849828 C39.4481681,64.5153578 39.9294496,63.4138031 40.1129163,63.0858031 C40.2014644,62.9298109 40.6352867,62.0290922 40.796457,62.0226859 C37.5233607,62.1530531 35.8326644,64.881475 34.1801904,66.4510063 C33.9648719,66.654725 33.5565311,66.7565844 33.2778274,66.6771469 C33.6071756,64.6841625 35.5794422,63.0444828 37.1433681,62.0034672 C37.39022,61.8378656 38.3050052,61.0290766 38.5805237,61.0675141 C37.6972719,60.9432328 36.8111533,61.5511859 36.108183,62.0162797 C35.6648052,62.3093656 35.2373533,62.6210297 34.7911089,62.9109125 C34.5569978,63.0637016 34.1674496,63.4426313 33.8887459,63.4554438 C33.331657,63.4839516 34.088457,62.5447953 34.2559978,62.3503656 C34.604457,61.9496547 35.0191681,61.6024359 35.44662,61.2904516 C35.6743607,61.12485 38.2451237,59.7305297 38.2639163,59.7939516 C37.9950867,58.8612016 37.4660274,60.2077953 36.6811978,59.7939516 C37.304857,58.5111 39.5937311,58.9025219 41.4299904,58.8391 C41.0085904,56.5021 37.6342052,54.3819516 36.3642719,51.8348266 C36.1935459,50.3895766 37.0006719,49.9276859 37.3144126,48.9696312 C31.739383,43.9013266 25.290657,39.9979984 24.6510719,30.8229672 C24.5370422,29.1989828 24.6163533,27.5532172 24.8823163,25.9484516 C25.1384052,24.4202406 25.5375089,22.9240609 26.0219756,21.4567094 C26.5000719,20.0079359 27.0539756,18.5847875 27.6174348,17.1680453 C28.1840793,15.7481 28.71282,14.3156625 29.2100274,12.8668891 C29.7228422,11.3771156 30.1216274,9.890225 30.32102,8.32069375 C30.3652941,7.97379531 30.3496867,7.63618594 30.5930348,7.35911562 C31.5304348,6.29599844 33.2147607,5.26779531 34.0817681,4.30301406 C34.6264348,3.69185781 35.2313015,3.13771719 35.8358496,2.59030312 C36.4499533,2.03936562 37.0704274,1.4980375 37.6593681,0.922115625 C37.8017459,0.78181875 37.8874274,0.603404687 38.0078274,0.447732812 C38.08682,0.342670312 38.1817385,0.240490625 38.2957681,0.176748437 C38.3432274,0.15144375 38.48242,0.0941078125 38.5362496,0.119732812 C38.6247978,0.16425625 38.4664941,0.37438125 38.4320941,0.425310937 C38.4002422,0.469834375 37.9253311,0.99835 37.9539978,1.06209219 C37.9979533,1.15434219 38.5079015,0.743701562 38.567783,0.724482812 C38.8401163,0.638639062 39.0079756,0.431717187 39.2739385,0.333060937 C39.5841756,0.218389062 39.9039681,0.110123437 40.2333163,0.0656 C40.3881163,0.043178125 40.54642,0.049584375 40.6954867,0.0844984375 C40.8095163,0.113326562 40.932783,0.135748437 41.037257,0.186357812 C41.217857,0.272521875 40.96782,0.377584375 40.8789533,0.422107812 C40.8031459,0.460225 40.72702,0.504748437 40.6480274,0.536779687 C40.4642422,0.613014062 40.2744052,0.660740625 40.0810644,0.714873437 C39.7141311,0.813529687 39.3182126,0.902896875 38.989183,1.1034125 C38.8592274,1.17964687 38.7451978,1.29111562 38.6502793,1.4057875 C38.4859237,1.60342031 38.7671756,1.6415375 38.9254793,1.64442031 C39.1662793,1.65114687 39.4099459,1.61270937 39.6507459,1.58740469 C40.2173904,1.5236625 40.8190719,1.44102187 41.3889015,1.5236625 C41.5185385,1.54288125 41.6513607,1.57138906 41.7749459,1.62552187 C41.8383311,1.65114687 41.9080867,1.69567031 41.9619163,1.74019375 C42.1326422,1.89618594 41.7211163,1.97562344 41.6230126,2.00765469 C41.4647089,2.05538125 41.30322,2.09029531 41.1385459,2.11592031 C40.7840348,2.17293594 40.4231533,2.18574844 40.0622719,2.21137344 C39.7141311,2.23988125 39.3628052,2.27511562 39.0175311,2.3385375 C38.7168496,2.39587344 38.4002422,2.469225 38.1435163,2.64443594 C38.0046422,2.74309219 37.8966644,2.8766625 37.8144867,3.02304531 C37.7291237,3.17263125 37.6087237,3.3225375 37.6593681,3.50383437 C37.7131978,3.68865469 37.9189607,3.75239687 38.0896867,3.77770156 C38.1849237,3.79051406 38.2830274,3.79339687 38.3779459,3.79692031 C38.7420126,3.79980312 39.1156348,3.73638125 39.4765163,3.80652969 C39.5491385,3.81902187 39.625583,3.84752969 39.6886496,3.88917031 C39.7205015,3.90806875 39.8058644,3.97181094 39.8058644,4.00992812 C39.8090496,4.08968594 39.6316348,4.07687344 39.5778052,4.09288906 C39.5019978,4.11499062 39.4258719,4.14381875 39.3468793,4.15663125 C39.1787015,4.18513906 39.0143459,4.21364687 38.8496719,4.24567812 C38.5238274,4.30621719 38.1973459,4.37604531 37.8775533,4.46220937 C37.2573978,4.62749062 36.6528496,4.84754531 36.0795163,5.13710781 C35.5479089,5.40777187 35.0350941,5.74185781 34.6168793,6.17171719 C34.2212793,6.58267812 33.9425756,7.08236562 33.8256793,7.64579531 C33.6925385,8.27617031 33.743183,8.92896719 33.8065681,9.56542812 C33.8158052,9.64518594 33.8129385,9.73423281 33.8317311,9.8107875 C36.6050719,8.90334219 37.4851385,6.03174062 39.8975978,4.47181875 C40.8442348,3.86354531 42.024983,3.45290469 43.6459237,3.44329531 C46.4730941,3.42439687 58.3640274,7.22554531 55.3594422,11.0840297 C54.5488126,12.1253656 48.3628644,14.4588422 45.2289607,14.9043969 C43.8328941,15.1049125 42.0915533,14.5193812 41.113383,14.9043969 C38.5996348,15.8944828 38.7738644,18.5178422 39.5303459,21.5902797 C39.5717533,21.7587641 42.0947385,20.2593812 42.2973163,20.1162016 C43.1837533,19.4954359 44.0450274,18.8205375 45.0072719,18.3141234 C45.3082719,18.1549281 45.6054496,17.9893266 45.9252422,17.8717719 C46.0297163,17.8304516 46.1341904,17.7920141 46.2386644,17.7920141 C46.3147904,17.7888109 46.3622496,17.7667094 46.3842274,17.8400609 C46.4033385,17.9066859 46.3905978,17.9704281 46.3303978,18.0053422 C46.2545904,18.0498656 46.1692274,18.0786937 46.0867311,18.1168109 C45.9411681,18.1805531 45.7764941,18.2696 45.7605681,18.4480141 C45.7478274,18.6104125 46.8718793,18.4480141 46.9951459,18.4384047 C47.7013015,18.3746625 48.5877385,18.1837562 49.1957904,18.6677484 C49.2368793,18.6962563 49.2970793,18.7567953 49.3002644,18.8109281 C49.3063163,18.8874828 49.2305089,18.8839594 49.1703089,18.8874828 C48.9298274,18.9063813 48.6953978,18.83335 48.4485459,18.8490453 C48.0589978,18.8714672 47.6761385,18.8394359 47.2897756,18.9284828 C46.8718793,19.0242562 46.4730941,19.1866547 46.0615681,19.3042094 C46.0109237,19.320225 45.8395607,19.3935766 45.8048422,19.4348969 C45.7417756,19.5111312 45.8781015,19.6037016 45.9284274,19.6450219 C46.0456422,19.740475 46.2418496,19.7946078 46.3842274,19.8487406 C46.9288941,20.0588656 47.546183,19.9124828 48.1128274,20.1194047 C48.5339089,20.2721937 49.0849459,20.5140297 49.1196644,21.0364594 C49.1228496,21.1158969 48.7176941,20.908975 48.6100348,20.8452328 C48.4294348,20.7401703 48.062183,20.5745687 48.0023015,20.5620766 C47.485983,20.3932719 46.9193385,20.4092875 46.3874126,20.4695062 C45.8242719,20.5332484 45.3111385,20.6700219 44.785583,20.88335 C44.6747385,20.9281937 44.5642126,20.9788031 44.4785311,21.0649672 C44.4186496,21.1223031 44.3613163,21.1921312 44.3202274,21.2622797 C44.2663978,21.3545297 44.2823237,21.4182719 44.3234126,21.513725 C44.3520793,21.5806703 44.3960348,21.6412094 44.4498644,21.6889359 C44.5642126,21.7875922 44.7225163,21.8353187 44.8680793,21.8609438 C45.1907385,21.9211625 45.5739163,21.8990609 45.8745978,22.0422406 C46.1055237,22.1537094 46.223057,22.3830531 46.2577756,22.6344984 C46.2641459,22.682225 46.2829385,22.7651859 46.2418496,22.8001 C46.1819681,22.8574359 46.0803607,22.7776781 46.0236644,22.7555766 C45.6309311,22.5963812 44.5893756,22.3193109 44.4657904,22.3064984 C43.9055163,22.2459594 43.342057,22.3353266 42.8165015,22.538725 C41.7749459,22.9464828 40.9614496,23.7485453 40.1065459,24.4458656 C39.7205015,24.7610531 38.8815237,25.7703578 38.3304867,25.6143656 C38.0011385,25.5189125 37.9441237,24.9807875 37.8651311,24.7069203 C37.7227533,24.2072328 37.5577607,23.7168344 37.365057,23.2360453 C37.2351015,22.9115687 37.1497385,22.5358422 36.9978052,22.2270609 C36.7984126,28.9030141 42.0915533,32.8127484 44.5957459,37.8269203 C44.3928496,37.4223656 45.3082719,36.1619359 45.4917385,35.8531547 C46.0615681,34.910475 46.6154719,33.9521 47.3216274,33.1087172 C49.2811533,30.7656312 51.1107237,35.8816625 51.5668422,37.1135844 C51.7283311,37.5466469 51.8707089,37.9893188 52.035383,38.4252641 C52.2475163,38.9729984 52.4596496,39.5873578 52.8269015,40.0553344" id="Fill-1"></path>
                    <path d="M22.8749489,54.6079641 L22.8749489,59.5872219 C10.1485415,58.8770891 0.0527785185,48.5969797 0.0527785185,36.015425 C0.0527785185,23.4367531 10.1485415,13.1566438 22.8749489,12.4468313 L22.8749489,17.5404406 C12.8457563,18.7566672 5.10511926,26.5886281 5.10511926,36.0759641 C5.10511926,45.5597766 12.8457563,53.3917375 22.8749489,54.6079641" id="Fill-3"></path>
                    <polygon id="Fill-5" points="85.7702207 13.459243 85.7702207 18.4320945 71.3942059 18.4320945 71.3942059 37.7440555 81.1102948 37.7440555 81.1102948 42.5448992 71.3942059 42.5448992 71.3942059 58.5015867 65.9335244 58.5015867 65.9335244 42.6598914 62.7136207 42.6659773 62.7199911 37.884032 65.8637689 37.8811492 65.8542133 13.3445711"></polygon>
                </g>
            </g>
        </g>
    </g>
</svg>